<svg width="62.7in" height="18.9in" viewBox="0 0 62.7 18.9" fill="none" xmlns="http://www.w3.org/2000/svg">
<g>
	<polygon fill="#515CBB" points="14.8,0.9 7.5,0.9 2.3,6 2.3,13.3 7.5,18.4 14.8,18.4 20,13.3 20,6 	"/>
	<g>
		<g>
			<path fill="#FFFFFF" d="M15.6,11.6c-0.3,0.7-0.8,1.3-1.3,1.8c0.4,0.6,0.7,1.2,0.9,1.9L14,15.5c-0.1-0.6-0.3-1.1-0.7-1.5
				c-0.8,0.5-1.7,0.7-2.7,0.7c-1,0-1.9-0.2-2.7-0.7c-0.8-0.5-1.5-1.1-2-1.9c-0.5-0.8-0.7-1.7-0.7-2.7c0-1,0.2-1.9,0.7-2.7
				c0.5-0.8,1.1-1.5,2-2C8.8,4.2,9.7,4,10.7,4c1,0,1.9,0.2,2.7,0.7c0.8,0.5,1.5,1.1,2,2c0.5,0.8,0.7,1.7,0.7,2.7
				C16.1,10.1,15.9,10.9,15.6,11.6z M7,11.5c0.4,0.7,0.9,1.2,1.6,1.5c0.7,0.4,1.4,0.6,2.1,0.6c0.6,0,1.2-0.1,1.8-0.4
				C12.3,13.1,12.1,13,12,13c-0.2-0.1-0.3-0.1-0.4-0.1c-0.1,0-0.2,0-0.2,0l0.2-1.1c0,0,0.2,0,0.5,0.1c0.4,0.1,0.8,0.3,1.3,0.7
				c0.5-0.4,0.9-0.9,1.1-1.4C14.8,10.6,15,10,15,9.3c0-0.8-0.2-1.5-0.6-2.1C14,6.5,13.5,6,12.8,5.6c-0.7-0.4-1.4-0.6-2.1-0.6
				c-0.8,0-1.5,0.2-2.1,0.6C7.9,6,7.4,6.5,7,7.2C6.6,7.9,6.4,8.6,6.4,9.3C6.4,10.1,6.6,10.8,7,11.5z"/>
		</g>
		<g>
			<path fill="#F7C245" d="M26.3,14.5c-0.6-0.3-1-0.8-1.3-1.3c-0.3-0.6-0.5-1.2-0.5-1.8c0-0.7,0.2-1.3,0.5-1.8
				c0.3-0.6,0.8-1,1.3-1.3c0.6-0.3,1.2-0.5,1.8-0.5c0.7,0,1.3,0.2,1.8,0.5c0.6,0.3,1,0.8,1.3,1.3c0.3,0.6,0.5,1.2,0.5,1.8V15h-3.6
				C27.5,15,26.9,14.8,26.3,14.5z M30.7,11.3c0-0.5-0.1-0.9-0.4-1.3c-0.2-0.4-0.6-0.7-0.9-0.9c-0.4-0.2-0.8-0.3-1.3-0.3
				c-0.5,0-0.9,0.1-1.3,0.3c-0.4,0.2-0.7,0.5-0.9,0.9c-0.2,0.4-0.3,0.8-0.3,1.3c0,0.5,0.1,0.9,0.3,1.3c0.2,0.4,0.5,0.7,0.9,0.9
				c0.4,0.2,0.8,0.4,1.3,0.4h2.6V11.3z"/>
			<path fill="#F7C245" d="M33.5,4.8V15h-1V4.8H33.5z"/>
			<path fill="#F7C245" d="M35.3,5.8v1h-1v-1H35.3z M35.3,7.7V15h-1V7.7H35.3z"/>
			<path fill="#515CBC" d="M40,4.8v1c-0.2,0-0.3,0-0.4,0c-0.5,0-0.9,0.1-1.3,0.3c-0.4,0.2-0.7,0.5-0.9,0.9C37.1,7.5,37,8,37,8.4v2.4
				h2.3v1H37V15h-1V8.4c0-0.7,0.2-1.3,0.5-1.8c0.3-0.6,0.8-1,1.3-1.3C38.3,5,39,4.8,39.6,4.8C39.7,4.8,39.8,4.8,40,4.8z"/>
			<path fill="#515CBC" d="M41.8,5.8v1h-1v-1H41.8z M41.8,7.7V15h-1V7.7H41.8z"/>
			<path fill="#515CBC" d="M42.9,9.1c0.3-0.4,0.6-0.8,1.1-1c0.4-0.2,0.9-0.4,1.4-0.4c0.5,0,1,0.1,1.4,0.4c0.4,0.2,0.8,0.6,1.1,1
				c0.3,0.4,0.4,0.9,0.4,1.4V15h-1l0-4.4c0-0.5-0.2-0.9-0.6-1.3c-0.4-0.3-0.8-0.5-1.3-0.5s-0.9,0.2-1.3,0.5
				c-0.4,0.3-0.6,0.8-0.6,1.3V15h-1v-4.5C42.5,10,42.7,9.5,42.9,9.1z"/>
			<path fill="#515CBC" d="M56.3,9.4l0,2c0,0.7-0.2,1.3-0.5,1.8c-0.3,0.6-0.8,1-1.3,1.3c-0.6,0.3-1.2,0.5-1.8,0.5
				c-0.7,0-1.3-0.2-1.8-0.5c-0.6-0.3-1-0.8-1.3-1.3c-0.3-0.6-0.5-1.2-0.5-1.8c0-0.7,0.2-1.3,0.5-1.8c0.3-0.6,0.8-1,1.3-1.3
				c0.6-0.3,1.2-0.5,1.8-0.5h2.6V4.8h1V9.4z M52.7,8.7c-0.5,0-0.9,0.1-1.3,0.4C51,9.3,50.7,9.6,50.4,10c-0.2,0.4-0.3,0.8-0.3,1.3
				c0,0.5,0.1,0.9,0.3,1.3c0.2,0.4,0.5,0.7,0.9,0.9c0.4,0.2,0.8,0.3,1.3,0.3c0.5,0,0.9-0.1,1.3-0.3c0.4-0.2,0.7-0.5,0.9-0.9
				c0.2-0.4,0.4-0.8,0.4-1.3V8.7H52.7z"/>
			<path fill="#515CBC" d="M60.9,13.9c0.2-0.1,0.4-0.2,0.6-0.4c0.1-0.2,0.2-0.4,0.2-0.7c0-0.2-0.1-0.5-0.2-0.7
				c-0.1-0.2-0.3-0.3-0.6-0.4h-1.8c-0.4,0-0.7-0.1-1-0.3c-0.3-0.2-0.6-0.4-0.8-0.8c-0.2-0.3-0.3-0.7-0.3-1c0-0.4,0.1-0.7,0.3-1
				C57.5,8.5,57.7,8.2,58,8c0.3-0.2,0.6-0.3,1-0.3h3.2v1H59c-0.3,0-0.5,0.1-0.7,0.3c-0.2,0.2-0.3,0.4-0.3,0.7c0,0.3,0.1,0.5,0.3,0.7
				c0.2,0.2,0.4,0.3,0.7,0.3h1.6c0.4,0,0.7,0.1,1,0.3c0.3,0.2,0.6,0.4,0.8,0.8c0.2,0.3,0.3,0.7,0.3,1s-0.1,0.7-0.3,1
				c-0.2,0.3-0.4,0.6-0.8,0.7c-0.3,0.2-0.7,0.3-1,0.3h-3v-1H60.9z"/>
		</g>
		<linearGradient id="SVGID_1_" gradientUnits="userSpaceOnUse" x1="0" y1="9.4654" x2="23.7764" y2="9.4654">
			<stop  offset="0" style="stop-color:#00BAC8"/>
			<stop  offset="4.864911e-02" style="stop-color:#06BAC5"/>
			<stop  offset="0.1164" style="stop-color:#18BBBB"/>
			<stop  offset="0.1954" style="stop-color:#36BCAB"/>
			<stop  offset="0.2828" style="stop-color:#60BD95"/>
			<stop  offset="0.3773" style="stop-color:#95BF79"/>
			<stop  offset="0.4761" style="stop-color:#D4C157"/>
			<stop  offset="0.5256" style="stop-color:#F7C245"/>
		</linearGradient>
		<path fill="url(#SVGID_1_)" d="M22.7,7.7v4.4c0,0.5-0.2,0.9-0.6,1.3c-0.4,0.3-0.8,0.5-1.3,0.5c-0.5,0-0.9-0.2-1.3-0.5
			c-0.4-0.3-0.6-0.8-0.6-1.3c0-1,0-2.5,0-4.4h0V5.5L13.4,0H5.5L0,5.5v7.8l5.5,5.5h7.6v-1H6l-5-5V6l5-5h7l5,5v1.8h0v4.5
			c0,0.5,0.2,1,0.5,1.4c0.3,0.4,0.6,0.8,1.1,1s0.9,0.4,1.4,0.4c0.5,0,1-0.1,1.4-0.4c0.4-0.2,0.8-0.6,1.1-1c0.3-0.4,0.4-0.9,0.4-1.4
			V7.7H22.7z"/>
	</g>
</g>

</svg>
